<?xml version="1.0" standalone="no"?>
<!DOCTYPE svg PUBLIC "-//W3C//DTD SVG 20010904//EN"
 "http://www.w3.org/TR/2001/REC-SVG-20010904/DTD/svg10.dtd">
<svg version="1.0" xmlns="http://www.w3.org/2000/svg"
 width="357.000000pt" height="357.000000pt" viewBox="0 0 357.000000 357.000000"
 preserveAspectRatio="xMidYMid meet">
<metadata>
Created by potrace 1.11, written by Peter Selinger 2001-2013
</metadata>
<g transform="translate(0.000000,357.000000) scale(0.100000,-0.100000)"
fill="#000000" stroke="none">
<path d="M1600 3560 c-424 -52 -786 -225 -1075 -515 -149 -148 -254 -297 -349
-495 -235 -490 -232 -1062 9 -1554 321 -656 1013 -1049 1738 -988 252 21 430
69 642 172 513 249 874 726 977 1289 31 168 31 467 0 635 -137 746 -718 1315
-1472 1442 -107 18 -371 26 -470 14z m400 -120 c215 -27 456 -109 640 -219
171 -102 362 -271 483 -428 245 -320 365 -722 336 -1131 -29 -418 -204 -793
-506 -1085 -227 -220 -493 -363 -818 -438 -142 -33 -460 -38 -622 -10 -163 27
-322 80 -474 157 -165 84 -290 174 -420 303 -255 255 -398 522 -476 891 -26
121 -25 477 0 605 134 665 632 1179 1288 1330 149 34 403 45 569 25z"/>
<path d="M1235 2710 c-3 -5 1 -10 9 -10 13 0 16 -14 16 -75 0 -61 -3 -75 -16
-75 -8 0 -12 -4 -9 -10 8 -13 75 -13 75 -1 0 5 -4 11 -9 13 -11 4 -21 98 -11
98 5 0 16 -22 25 -50 9 -27 23 -50 30 -50 7 0 21 23 30 50 9 28 20 50 25 50
10 0 0 -94 -11 -98 -22 -9 -6 -22 26 -22 19 0 35 5 35 10 0 6 -4 10 -10 10 -6
0 -10 32 -10 75 0 43 4 75 10 75 6 0 10 5 10 11 0 6 -12 9 -27 7 -23 -3 -32
-13 -54 -66 l-26 -63 -12 33 c-32 86 -40 98 -65 98 -14 0 -28 -4 -31 -10z"/>
<path d="M1470 2711 c0 -6 7 -11 15 -11 12 0 15 -14 15 -70 0 -54 -4 -72 -15
-76 -8 -4 -15 -10 -15 -15 0 -12 67 -11 75 1 3 6 -1 10 -9 10 -12 0 -16 11
-16 50 0 28 3 50 8 50 4 0 15 -22 25 -50 10 -27 23 -50 30 -50 7 0 22 24 33
53 l19 52 3 -50 c2 -29 -1 -51 -7 -53 -24 -8 -9 -22 24 -22 19 0 35 5 35 10 0
6 -4 10 -10 10 -6 0 -10 32 -10 75 0 43 4 75 10 75 6 0 10 5 10 10 0 6 -11 10
-25 10 -26 0 -44 -27 -69 -99 l-13 -35 -24 64 c-23 60 -28 65 -57 68 -18 2
-32 -1 -32 -7z"/>
<path d="M1710 2712 c0 -6 6 -12 13 -15 18 -7 17 -139 0 -145 -26 -8 -12 -22
22 -22 33 0 48 14 24 22 -6 2 -9 26 -7 58 l3 55 21 -55 c12 -30 27 -55 34 -55
8 0 24 25 36 55 l23 55 1 -57 c0 -32 -4 -58 -10 -58 -5 0 -10 -4 -10 -10 0 -5
16 -10 35 -10 32 0 48 14 26 22 -15 5 -17 141 -3 146 23 7 12 22 -16 22 -26 0
-31 -6 -53 -60 -13 -33 -26 -60 -29 -60 -3 0 -14 26 -26 58 -18 52 -23 57 -52
60 -18 2 -32 -1 -32 -6z"/>
<path d="M1950 2710 c0 -5 4 -10 9 -10 5 0 11 -29 13 -64 5 -77 25 -106 73
-106 55 0 69 19 73 99 2 39 8 71 13 71 5 0 9 5 9 10 0 6 -19 10 -42 10 -39 0
-40 -1 -25 -18 22 -25 23 -115 1 -136 -39 -39 -74 -5 -74 70 0 39 4 56 15 60
8 4 12 10 9 15 -7 12 -74 11 -74 -1z"/>
<path d="M2160 2696 c0 -32 20 -44 27 -17 3 12 13 21 24 21 17 0 19 -8 19 -75
0 -43 -4 -75 -10 -75 -5 0 -10 -4 -10 -10 0 -5 16 -10 35 -10 19 0 35 5 35 10
0 6 -4 10 -10 10 -6 0 -10 32 -10 75 0 67 2 75 19 75 11 0 21 -9 24 -21 7 -27
27 -15 27 17 0 24 -2 24 -85 24 -83 0 -85 0 -85 -24z"/>
<path d="M892 2387 c-84 -31 -132 -109 -132 -212 0 -111 58 -167 265 -255 213
-91 255 -128 255 -228 0 -33 -5 -73 -11 -89 -28 -76 -107 -113 -239 -113 -133
0 -202 39 -246 139 -18 42 -54 58 -54 24 1 -56 71 -147 138 -179 82 -39 276
-40 345 -1 67 37 103 95 113 180 9 79 -2 122 -43 168 -45 49 -87 74 -228 134
-129 55 -197 96 -227 138 -36 51 -22 175 26 222 46 45 207 60 282 26 45 -20
88 -70 99 -113 6 -24 1 -31 -59 -74 -36 -26 -66 -51 -66 -56 0 -14 59 -9 77 6
10 8 38 30 63 49 51 38 52 46 12 126 -17 34 -43 65 -70 85 -42 30 -48 31 -155
33 -69 1 -124 -2 -145 -10z"/>
<path d="M1755 2368 c-7 -22 -66 -188 -127 -353 -16 -44 -36 -98 -43 -120 -15
-45 -35 -101 -106 -294 -48 -128 -52 -159 -18 -146 15 6 25 30 134 335 36 102
77 212 89 245 13 33 36 97 52 143 15 45 31 82 34 82 3 0 13 -21 22 -47 9 -27
34 -100 57 -163 41 -111 64 -176 150 -418 23 -63 43 -118 47 -123 3 -5 -95 -9
-241 -9 -242 0 -246 0 -243 -20 3 -20 9 -21 272 -21 148 0 270 2 272 4 2 2
-23 78 -57 168 -100 270 -198 543 -251 697 -23 66 -33 75 -43 40z"/>
<path d="M2262 1924 l3 -466 274 2 c151 0 278 3 282 6 5 2 6 11 2 19 -4 13
-45 15 -262 15 l-256 0 3 425 2 425 215 0 c118 0 215 -2 215 -5 0 -2 -88 -91
-195 -196 -107 -106 -191 -197 -187 -201 5 -5 94 -7 198 -6 181 3 189 4 189
23 0 19 -8 20 -145 23 l-144 3 199 199 200 200 -298 0 -297 0 2 -466z"/>
<path d="M723 1358 c-2 -5 -1 -8 4 -8 334 -3 2116 1 2113 5 -8 8 -2111 11
-2117 3z"/>
<path d="M985 1211 c-3 -5 3 -12 14 -16 33 -10 42 -85 15 -123 -36 -51 -91 -4
-81 69 3 22 14 47 24 54 17 13 17 14 0 15 -9 0 -26 -15 -37 -32 -23 -37 -20
-90 7 -120 21 -24 85 -24 105 0 40 45 34 123 -12 147 -16 8 -31 11 -35 6z"/>
<path d="M1530 1198 c-26 -28 -34 -60 -26 -100 8 -42 23 -58 54 -58 l25 0 -27
21 c-34 27 -37 98 -6 129 11 11 20 22 20 25 0 12 -21 3 -40 -17z"/>
<path d="M761 1184 c-23 -30 -27 -74 -10 -107 17 -32 29 -37 82 -35 46 2 47 3
47 32 l-1 31 -15 -27 c-17 -32 -53 -37 -79 -11 -23 23 -16 108 11 128 17 13
17 14 2 15 -9 0 -26 -12 -37 -26z"/>
<path d="M842 1198 c8 -7 20 -22 26 -33 11 -19 11 -18 12 6 0 16 -7 29 -16 33
-27 10 -39 7 -22 -6z"/>
<path d="M1088 1198 c11 -15 10 -127 -1 -145 -6 -10 6 -13 52 -13 60 0 61 0
60 28 0 27 0 27 -11 4 -8 -17 -19 -22 -37 -20 -25 3 -26 5 -26 81 0 74 -1 77
-24 77 -17 0 -21 -3 -13 -12z"/>
<path d="M1225 1125 l0 -85 58 0 c55 0 57 1 57 27 l0 27 -16 -22 c-8 -12 -26
-22 -40 -22 -23 0 -24 2 -24 74 0 50 4 76 13 79 6 3 -1 6 -18 6 l-30 1 0 -85z"/>
<path d="M1365 1125 l0 -85 58 0 c55 0 57 1 57 27 l0 27 -16 -22 c-10 -15 -24
-22 -37 -20 -20 3 -22 10 -25 76 -3 71 -3 72 23 72 14 0 28 -7 31 -15 9 -22
24 -18 24 5 0 18 -7 20 -57 20 l-58 0 0 -85z"/>
<path d="M1598 1199 c12 -4 22 -15 22 -24 0 -8 5 -15 10 -15 6 0 10 11 10 23
0 20 -5 24 -32 25 -29 0 -30 -1 -10 -9z"/>
<path d="M1678 1134 c3 -56 0 -79 -10 -85 -9 -6 -3 -9 17 -9 l30 0 0 85 c0 78
-2 85 -20 85 -19 0 -20 -6 -17 -76z"/>
<path d="M1796 1194 c-3 -9 1 -25 9 -37 21 -30 19 -47 -5 -47 -17 0 -19 5 -15
28 5 19 1 16 -13 -14 -35 -73 -36 -84 -11 -84 17 0 20 3 12 11 -20 20 -3 49
28 49 25 0 30 -5 36 -30 4 -23 11 -30 28 -30 l23 0 -23 48 c-12 26 -28 64 -34
85 -13 39 -25 47 -35 21z"/>
<path d="M1891 1183 c0 -17 3 -22 6 -13 6 16 23 30 36 30 5 0 7 -36 5 -80 l-3
-80 30 0 c22 0 26 3 17 12 -7 7 -12 40 -12 80 0 56 3 68 16 68 9 0 18 -9 21
-20 6 -24 23 -16 23 11 0 17 -7 19 -70 19 -70 0 -70 0 -69 -27z"/>
<path d="M2048 1203 c8 -3 12 -29 12 -78 0 -49 -4 -75 -12 -78 -7 -3 17 -6 55
-6 60 -1 67 1 67 18 0 27 -17 35 -23 11 -3 -13 -14 -20 -30 -20 -29 0 -35 18
-33 95 2 45 4 50 26 53 14 3 29 -3 37 -14 12 -17 13 -16 13 4 0 20 -5 22 -62
21 -35 0 -57 -3 -50 -6z"/>
<path d="M2263 1183 c-22 -34 -21 -97 2 -123 11 -12 31 -20 51 -20 49 0 64 9
64 39 l0 26 -13 -25 c-8 -15 -23 -26 -39 -28 -49 -6 -75 89 -37 135 17 20 55
16 72 -9 l16 -23 0 28 c1 26 -1 27 -49 27 -43 0 -52 -4 -67 -27z"/>
<path d="M2415 1125 l0 -85 58 0 c55 0 57 1 57 27 l0 27 -16 -22 c-9 -13 -26
-22 -40 -22 -25 0 -26 0 -22 80 3 74 2 80 -17 80 -18 0 -20 -7 -20 -85z"/>
<path d="M2548 1198 c7 -7 12 -39 12 -73 0 -69 10 -85 55 -85 45 0 55 16 55
85 0 34 5 66 12 73 9 9 5 12 -17 11 -17 0 -24 -3 -17 -6 18 -7 16 -127 -3
-143 -22 -19 -52 -3 -59 32 -10 48 -7 93 6 106 9 9 4 12 -22 12 -26 0 -31 -3
-22 -12z"/>
<path d="M2718 1134 c3 -56 0 -79 -10 -85 -8 -5 8 -9 43 -9 30 0 60 5 67 12
17 17 15 48 -5 70 -10 12 -12 18 -4 18 8 0 11 12 9 33 -3 31 -5 32 -53 35
l-50 3 3 -77z m69 55 c12 -12 6 -39 -11 -51 -7 -5 -3 -13 12 -23 26 -19 27
-28 6 -49 -34 -34 -44 -20 -44 59 0 76 9 92 37 64z"/>
<path d="M1425 1140 c-3 -11 -2 -28 4 -37 8 -15 10 -11 11 20 0 41 -5 47 -15
17z"/>
<path d="M2110 1145 c-9 -11 -8 -19 4 -37 16 -22 16 -22 16 15 0 41 -2 44 -20
22z"/>
<path d="M1598 1108 c5 -7 12 -23 14 -36 5 -37 23 -30 26 11 3 34 1 37 -24 37
-20 0 -24 -3 -16 -12z"/>
<path d="M735 870 c28 -12 2086 -12 2105 0 10 6 -373 9 -1055 9 -606 0 -1061
-4 -1050 -9z"/>
</g>
</svg>
